inDegrees=no
num_controls=7
num_derivatives=13
num_iterations=117
num_multipliers=7
num_parameters=0
num_slacks=7
num_states=26
objective=5.366256
objective_accelerations=0.550947
objective_balance=0.080869
objective_effort=0.454384
objective_height=4.238920
objective_ligament=0.041137
solver_duration=1374.364746
status=Solve_Succeeded
success=true
DataType=double
version=3
OpenSimVersion=4.4-2022-07-23-0e9fedc
endheader
time	/jointset/ground_pelvis/pelvis_tilt/value	/jointset/ground_pelvis/pelvis_tx/value	/jointset/ground_pelvis/pelvis_ty/value	/jointset/hip_l/hip_flexion_l/value	/jointset/hip_l/hip_adduction_l/value	/jointset/hip_l/hip_rotation_l/value	/jointset/back/lumbar_extension/value	/jointset/patellofemoral_l/patellar_flexion_l/value	/jointset/knee_l/knee_flexion_l/value	/jointset/knee_l/knee_adduction_l/value	/jointset/knee_l/knee_rotation_l/value	/jointset/ankle_l/ankle_angle_l/value	/jointset/subtalar_l/subtalar_angle_l/value	/jointset/ground_pelvis/pelvis_tilt/speed	/jointset/ground_pelvis/pelvis_tx/speed	/jointset/ground_pelvis/pelvis_ty/speed	/jointset/hip_l/hip_flexion_l/speed	/jointset/hip_l/hip_adduction_l/speed	/jointset/hip_l/hip_rotation_l/speed	/jointset/back/lumbar_extension/speed	/jointset/patellofemoral_l/patellar_flexion_l/speed	/jointset/knee_l/knee_flexion_l/speed	/jointset/knee_l/knee_adduction_l/speed	/jointset/knee_l/knee_rotation_l/speed	/jointset/ankle_l/ankle_angle_l/speed	/jointset/subtalar_l/subtalar_angle_l/speed	/forceset/tau_hip_flexion_l	/forceset/tau_hip_adduction_l	/forceset/tau_hip_rotation_l	/forceset/tau_knee_flexion_l	/forceset/tau_ankle_angle_l	/forceset/tau_subtalar_angle_l	/forceset/tau_lumbar_extension	lambda_cid13_p0	lambda_cid13_p1	lambda_cid13_p2	lambda_cid13_p3	lambda_cid13_p4	lambda_cid13_p5	lambda_cid14_p0	/jointset/ground_pelvis/pelvis_tilt/accel	/jointset/ground_pelvis/pelvis_tx/accel	/jointset/ground_pelvis/pelvis_ty/accel	/jointset/hip_l/hip_flexion_l/accel	/jointset/hip_l/hip_adduction_l/accel	/jointset/hip_l/hip_rotation_l/accel	/jointset/back/lumbar_extension/accel	/jointset/patellofemoral_l/patellar_flexion_l/accel	/jointset/knee_l/knee_flexion_l/accel	/jointset/knee_l/knee_adduction_l/accel	/jointset/knee_l/knee_rotation_l/accel	/jointset/ankle_l/ankle_angle_l/accel	/jointset/subtalar_l/subtalar_angle_l/accel	gamma_cid13_p0	gamma_cid13_p1	gamma_cid13_p2	gamma_cid13_p3	gamma_cid13_p4	gamma_cid13_p5	gamma_cid14_p0
1	-0.7115695962310534	-0.150723554125968	0.6159906791761592	1.934898209786777	-0.307140457066181	0.0823448844834372	-0.4363263170714878	1.06071655455536	1.060716554555392	-0.1745028235271779	0.1745198490818409	0.02062312253703679	-0.05401610967965354	-0.008789928950508504	0.001132281191956723	-0.002241526168160655	0.01271978158550245	0.0005044749633707591	0.00270738076646973	0.0001918715614895951	0.007166719079520953	0.007166719079515302	7.788703858079029e-05	7.004423002705384e-05	0.003871537154031341	0.00119641314953897	-0.4677554387105565	0.02362531386241489	-0.01844823968958938	-0.2078194180842924	0.1643926122318071	0.02770708135893992	0.3682492903581405	6.186025797929928	-13.30451994868063	1.933662155288269	4.709917328926133	-725.8360368562238	-34.07504855360311	-5.679335559298713	2.241077462121916	0.3856843983919449	1.58201392868152	-6.355656949858585	-0.2207067173560425	-1.526511964582022	-0.01303158791067343	-4.19941233583784	-4.199412335837351	-0.03073629105838677	0.01372592021896394	-0.3366942733443276	-0.2422481686155043	7.940660126296098e-10	3.439181760931118e-09	-3.161866513375872e-09	-8.579041373048999e-11	5.786334799067162e-10	-3.365702495196176e-10	9.964249417468874e-10
1.01	-0.7115462831031262	-0.1506930347363857	0.6160472123370289	1.934708783224475	-0.3071456785558578	0.0822952670108478	-0.436324278511022	1.060578478911091	1.060578478911111	-0.1745020247014822	0.1745206365886081	0.02064513213734861	-0.05401544926963713	0.01345061528648002	0.00497131955216304	0.01354272741135188	-0.05058976657424607	-0.001545687719078542	-0.01262368122382219	0.0002021890805288354	-0.0347708243785966	-0.03477082437860037	8.161251407626295e-05	8.464379371311521e-05	0.0005291792262500577	-0.001061541313933849	-0.4673700895800483	0.02363666534203871	-0.01845615938254046	-0.2078614073631749	0.1644711820439722	0.0276865337741675	0.367963018512904	6.229818945379099	-13.30512548213243	1.935884874113666	4.668220252797997	-725.535361662746	-34.08681964996497	-5.686423412459877	2.215251621103873	0.3829716986645314	1.575815909355614	-6.316305077158979	-0.1967094097194068	-1.535327003774251	0.00601567665473765	-4.189271143049655	-4.189271143049293	0.0158860778625031	-0.005098438457694173	-0.3331867459291691	-0.2171516155994559	-1.071457295898469e-09	-4.069552369281835e-09	1.37507998621692e-08	-1.389232394782438e-09	-2.586248696082396e-09	1.311999256469639e-08	-3.328547657724218e-09
1.02	-0.7113006227895616	-0.1506241333344342	0.6162614250010455	1.933886720914796	-0.3071713093455681	0.08209255418079772	-0.4363225463226666	1.060021358673802	1.060021358673927	-0.1745011967989057	0.1745214850084294	0.02063368211969223	-0.05403728491033327	0.03567950818815059	0.008808683665787749	0.02929437446133425	-0.1138073678590349	-0.003577385042709819	-0.02791169071499202	0.000130596793333493	-0.07664219952676167	-0.07664219952676544	8.370242992331077e-05	8.222684136053534e-05	-0.002820386438900226	-0.003302796992865017	-0.4669847404501434	0.02364801682153705	-0.01846407907528812	-0.2079033966419969	0.1645497518562059	0.02766598618927916	0.3676767466669701	6.268127145957098	-13.30592060624793	1.939451526284326	4.632724887019307	-725.3135820728895	-34.07897558079742	-5.714990431066222	2.238747195058274	0.3853495490756825	1.57549262277549	-6.337267574866656	-0.2170136455926042	-1.517901464758001	-0.02941354915812466	-4.186178673847249	-4.186178673847137	-0.03106340298800154	0.01032261701168832	-0.3381358208180583	-0.23890841170733	-3.240870186780323e-09	-1.158328403251451e-08	2.976015934410487e-08	-1.734934133264804e-09	-6.327786469646543e-09	2.601121140803391e-08	-7.442811364475087e-09
1.03	-0.710832902462571	-0.1505168605527267	0.6166328997593453	1.932433270116275	-0.3072171386387575	0.08173723353623595	-0.4363218058621405	1.059045960756773	1.059045960756845	-0.1745003812002578	0.1745222337273054	0.02058864923250491	-0.0540814334031959	0.05784450762328571	0.01264607293623553	0.04498592240665793	-0.1768334472463653	-0.005581413224414916	-0.04313999266891337	1.834208699342483e-05	-0.1184157438303453	-0.118415743830347	7.923907958063957e-05	6.436563357419651e-05	-0.006192187320870974	-0.005521043813711775	-0.4660875375522234	0.02368872806700211	-0.01848818101044248	-0.2079809039204903	0.1647697155958342	0.02765978900330722	0.3670709234620747	6.376646627069016	-13.32866534535497	1.950428126090159	4.527444352946249	-724.7049717628347	-34.12167901510854	-5.765193388994466	2.202367561690131	0.382963239230145	1.563785623954796	-6.277877965415705	-0.1910421117173308	-1.523437612841588	-0.002004400145680889	-4.169693965193351	-4.169693965192915	0.01483132959267501	-0.008324659304520057	-0.3376008877697976	-0.2124065711363117	-5.413383991767828e-09	-1.909706669098209e-08	4.57603014087588e-08	-2.070863012129108e-09	-1.007520848400228e-08	3.889666143534205e-08	-1.155492498048391e-08
1.04	-0.7101441338924742	-0.1503712079536739	0.6171608499458054	1.930351038554792	-0.307282797155216	0.08123000126168427	-0.4363221625429594	1.057653477065394	1.057653477065533	-0.1744996164090502	0.1745227070000664	0.02050971860331975	-0.05414758911504001	0.079889156816377	0.01648464713486209	0.06058946009351449	-0.2395635204236897	-0.007543229696428831	-0.05829401670814002	-8.883137026011307e-05	-0.1600593543971057	-0.1600593543971054	7.354095523408995e-05	2.713764055888456e-05	-0.009599934838165665	-0.007704240789078755	-0.465190334654874	0.02372943931239187	-0.01851228294517985	-0.2080584111989166	0.1649896793355541	0.02765359181727503	0.366465100256512	6.479704450099066	-13.35163297049569	1.962787335085309	4.428400888924852	-724.1748082779845	-34.14536573549915	-5.837212856825759	2.214677146649384	0.3855865347115561	1.557890571082091	-6.278066332865466	-0.2085713036545401	-1.503045881819365	-0.02839729933829472	-4.16019192648254	-4.160191926482419	-0.03131035778879517	0.006449259966301181	-0.3453251478826704	-0.2318984426115129	-7.447125937001413e-09	-2.627027314226136e-08	6.02970718457428e-08	-2.342978046985321e-09	-1.3778191584213e-08	5.055287139320611e-08	-1.533121997733671e-08
1.05	-0.7092354492992355	-0.1501871353270151	0.6178443473861536	1.927643019678172	-0.3073678465232633	0.08057164219115778	-0.4363235692285318	1.055845304688736	1.055845304688797	-0.1744989445995602	0.1745227424131591	0.02039652301298112	-0.05423538689676539	0.1018331616420783	0.02033271204250298	0.07609044404577139	-0.3019857447568686	-0.009455849949983166	-0.07336258705475601	-0.0001901989191712963	-0.2015436256381283	-0.201543625638128	6.217632701093035e-05	-2.182381864994941e-05	-0.01304544588807413	-0.009845735436916006	-0.4640216813984692	0.02385126448350285	-0.01854485218477709	-0.2080693103356788	0.1651973820744239	0.0276823922001049	0.3657183631051946	6.595295806875476	-13.39470569690839	1.981448444763438	4.295568958244751	-723.4031673546635	-34.20669427779399	-5.931410449565125	2.182069947237842	0.3848410206328778	1.543261184526317	-6.216126516208949	-0.1809943277419724	-1.506497505387128	-0.0006604563994177465	-4.137816571029045	-4.13781657102898	0.01414673869007487	-0.01085298332355213	-0.3451023413260276	-0.2038415400105415	-9.476531261617687e-09	-3.343283658706601e-08	7.478811191936212e-08	-2.61309889921628e-09	-1.747978596835669e-08	6.217066759890004e-08	-1.909702064234088e-08
